{
  "accessors": [
    {
      "bufferView": 2,
      "componentType": 5126,
      "count": 1819,
      "max": [
        8.3350458145141602,
        4.0423870086669922,
        1.5770547389984131
      ],
      "min": [
        -8.4506664276123047,
        -18.879953384399414,
        -1.5955770015716553
      ],
      "type": "VEC3"
    },
    {
      "bufferView": 2,
      "byteOffset": 21828,
      "componentType": 5126,
      "count": 1819,
      "max": [
        1,
        0.99964034557342529,
        1
      ],
      "min": [
        -1,
        -0.99997252225875854,
        -1
      ],
      "type": "VEC3"
    },
    {
      "bufferView": 3,
      "componentType": 5126,
      "count": 1819,
      "max": [
        1,
        0.36894509196281433,
        0.74156153202056885,
        1
      ],
      "min": [
        -0.67949163913726807,
        -0.38470658659934998,
        -0.99992901086807251,
        -1
      ],
      "type": "VEC4"
    },
    {
      "bufferView": 1,
      "componentType": 5126,
      "count": 1819,
      "max": [
        0.99583113193511963,
        0.98451310396194458
      ],
      "min": [
        0.0041688466444611549,
        0.0041688466444611549
      ],
      "type": "VEC2"
    },
    {
      "bufferView": 0,
      "componentType": 5125,
      "count": 7908,
      "max": [
        1818
      ],
      "min": [
        0
      ],
      "type": "SCALAR"
    },
    {
      "bufferView": 2,
      "byteOffset": 43656,
      "componentType": 5126,
      "count": 203,
      "max": [
        8.2475395202636719,
        3.9377803802490234,
        1.125
      ],
      "min": [
        -8.0661716461181641,
        -18.797975540161133,
        -1.1441794633865356
      ],
      "type": "VEC3"
    },
    {
      "bufferView": 2,
      "byteOffset": 46092,
      "componentType": 5126,
      "count": 203,
      "max": [
        1,
        1,
        0.033663529902696609
      ],
      "min": [
        -0.039381194859743118,
        -1,
        -0.033844530582427979
      ],
      "type": "VEC3"
    },
    {
      "bufferView": 3,
      "byteOffset": 29104,
      "componentType": 5126,
      "count": 203,
      "max": [
        0.033644750714302063,
        0.028976602479815483,
        -0.99923795461654663,
        1
      ],
      "min": [
        -0.033819161355495453,
        -0.028862951323390007,
        -1,
        -1
      ],
      "type": "VEC4"
    },
    {
      "bufferView": 1,
      "byteOffset": 14552,
      "componentType": 5126,
      "count": 203,
      "max": [
        0.83261650800704956,
        0.85280179977416992
      ],
      "min": [
        0.66667932271957397,
        0.0041688466444611549
      ],
      "type": "VEC2"
    },
    {
      "bufferView": 0,
      "byteOffset": 31632,
      "componentType": 5125,
      "count": 936,
      "max": [
        202
      ],
      "min": [
        0
      ],
      "type": "SCALAR"
    },
    {
      "bufferView": 2,
      "byteOffset": 48528,
      "componentType": 5126,
      "count": 884,
      "max": [
        -8.1281375885009766,
        0.51272046566009521,
        1.5431777238845825
      ],
      "min": [
        -8.7233057022094727,
        -15.659848213195801,
        -1.5431777238845825
      ],
      "type": "VEC3"
    },
    {
      "bufferView": 2,
      "byteOffset": 59136,
      "componentType": 5126,
      "count": 884,
      "max": [
        0.98479413986206055,
        1,
        0.85042184591293335
      ],
      "min": [
        -0.99999874830245972,
        -1,
        -0.85042154788970947
      ],
      "type": "VEC3"
    },
    {
      "bufferView": 3,
      "byteOffset": 32352,
      "componentType": 5126,
      "count": 884,
      "max": [
        0.99996095895767212,
        0.9725678563117981,
        0.99121743440628052,
        1
      ],
      "min": [
        -0.82605129480361938,
        -0.99999880790710449,
        -0.99121743440628052,
        -1
      ],
      "type": "VEC4"
    },
    {
      "bufferView": 1,
      "byteOffset": 16176,
      "componentType": 5126,
      "count": 884,
      "max": [
        0.78002184629440308,
        0.77264964580535889
      ],
      "min": [
        0.71891939640045166,
        0.53691661357879639
      ],
      "type": "VEC2"
    },
    {
      "bufferView": 0,
      "byteOffset": 35376,
      "componentType": 5125,
      "count": 3120,
      "max": [
        883
      ],
      "min": [
        0
      ],
      "type": "SCALAR"
    }
  ],
  "asset": {
    "extras": {
      "author": "madziam (https://sketchfab.com/madziam)",
      "license": "CC-BY-4.0 (http://creativecommons.org/licenses/by/4.0/)",
      "source": "https://sketchfab.com/3d-models/elder-grimoire-11b0a3ac1f5b487f873fdf957ab0b038",
      "title": "Elder grimoire"
    },
    "generator": "Sketchfab-7.47.0",
    "version": "2.0"
  },
  "bufferViews": [
    {
      "buffer": 0,
      "byteLength": 47856,
      "byteOffset": 0,
      "name": "floatBufferViews",
      "target": 34963
    },
    {
      "buffer": 0,
      "byteLength": 23248,
      "byteOffset": 47856,
      "byteStride": 8,
      "name": "floatBufferViews",
      "target": 34962
    },
    {
      "buffer": 0,
      "byteLength": 69744,
      "byteOffset": 71104,
      "byteStride": 12,
      "name": "floatBufferViews",
      "target": 34962
    },
    {
      "buffer": 0,
      "byteLength": 46496,
      "byteOffset": 140848,
      "byteStride": 16,
      "name": "floatBufferViews",
      "target": 34962
    }
  ],
  "buffers": [
    {
      "byteLength": 187344,
      "uri": "scene.bin"
    }
  ],
  "images": [
    {
      "uri": "textures/cover_baseColor.jpeg"
    },
    {
      "uri": "textures/cover_metallicRoughness.png"
    },
    {
      "uri": "textures/cover_normal.png"
    },
    {
      "uri": "textures/paper_baseColor.jpeg"
    },
    {
      "uri": "textures/paper_metallicRoughness.png"
    },
    {
      "uri": "textures/paper_normal.png"
    }
  ],
  "materials": [
    {
      "doubleSided": true,
      "name": "cover",
      "normalTexture": {
        "index": 2,
        "scale": 1,
        "texCoord": 0
      },
      "pbrMetallicRoughness": {
        "baseColorFactor": [
          1,
          1,
          1,
          1
        ],
        "baseColorTexture": {
          "index": 0,
          "texCoord": 0
        },
        "metallicFactor": 1,
        "metallicRoughnessTexture": {
          "index": 1,
          "texCoord": 0
        },
        "roughnessFactor": 1
      }
    },
    {
      "doubleSided": true,
      "emissiveFactor": [
        0,
        0,
        0
      ],
      "name": "paper",
      "normalTexture": {
        "index": 5,
        "scale": 1,
        "texCoord": 0
      },
      "occlusionTexture": {
        "index": 4,
        "strength": 1,
        "texCoord": 0
      },
      "pbrMetallicRoughness": {
        "baseColorFactor": [
          1,
          1,
          1,
          1
        ],
        "baseColorTexture": {
          "index": 3,
          "texCoord": 0
        },
        "metallicFactor": 0,
        "metallicRoughnessTexture": {
          "index": 4,
          "texCoord": 0
        },
        "roughnessFactor": 1
      }
    }
  ],
  "meshes": [
    {
      "name": "book_high_poly_cover_0",
      "primitives": [
        {
          "attributes": {
            "NORMAL": 1,
            "POSITION": 0,
            "TANGENT": 2,
            "TEXCOORD_0": 3
          },
          "indices": 4,
          "material": 0,
          "mode": 4
        }
      ]
    },
    {
      "name": "book_high_poly_paper_0",
      "primitives": [
        {
          "attributes": {
            "NORMAL": 6,
            "POSITION": 5,
            "TANGENT": 7,
            "TEXCOORD_0": 8
          },
          "indices": 9,
          "material": 1,
          "mode": 4
        }
      ]
    },
    {
      "name": "cover_high_poly_cover_0",
      "primitives": [
        {
          "attributes": {
            "NORMAL": 11,
            "POSITION": 10,
            "TANGENT": 12,
            "TEXCOORD_0": 13
          },
          "indices": 14,
          "material": 0,
          "mode": 4
        }
      ]
    }
  ],
  "nodes": [
    {
      "children": [
        1
      ],
      "name": "RootNode (gltf orientation matrix)",
      "rotation": [
        -0.70710678118654746,
        -0,
        -0,
        0.70710678118654757
      ]
    },
    {
      "children": [
        2
      ],
      "name": "RootNode (model correction matrix)"
    },
    {
      "children": [
        3
      ],
      "matrix": [
        1,
        0,
        0,
        0,
        0,
        0,
        1,
        0,
        0,
        -1,
        0,
        0,
        0,
        0,
        0,
        1
      ],
      "name": "36f63b2812d94abf859a5b6e738852dd.fbx"
    },
    {
      "children": [
        4,
        7
      ],
      "name": "RootNode"
    },
    {
      "children": [
        5,
        6
      ],
      "matrix": [
        1,
        0,
        0,
        0,
        0,
        1,
        0,
        0,
        0,
        0,
        1,
        0,
        20.02562141418457,
        8.8099336624145508,
        0,
        1
      ],
      "name": "book_high_poly"
    },
    {
      "mesh": 0,
      "name": "book_high_poly_cover_0"
    },
    {
      "mesh": 1,
      "name": "book_high_poly_paper_0"
    },
    {
      "children": [
        8
      ],
      "matrix": [
        1,
        0,
        0,
        0,
        0,
        1,
        0,
        0,
        0,
        0,
        1,
        0,
        20.02562141418457,
        8.8099336624145508,
        0,
        1
      ],
      "name": "cover_high_poly"
    },
    {
      "mesh": 2,
      "name": "cover_high_poly_cover_0"
    }
  ],
  "samplers": [
    {
      "magFilter": 9729,
      "minFilter": 9987,
      "wrapS": 10497,
      "wrapT": 10497
    }
  ],
  "scene": 0,
  "scenes": [
    {
      "name": "OSG_Scene",
      "nodes": [
        0
      ]
    }
  ],
  "textures": [
    {
      "sampler": 0,
      "source": 0
    },
    {
      "sampler": 0,
      "source": 1
    },
    {
      "sampler": 0,
      "source": 2
    },
    {
      "sampler": 0,
      "source": 3
    },
    {
      "sampler": 0,
      "source": 4
    },
    {
      "sampler": 0,
      "source": 5
    }
  ]
}

